<mxfile host="app.diagrams.net" modified="2023-07-22T18:45:05.193Z" agent="Mozilla/5.0 (Windows NT 10.0; Win64; x64) AppleWebKit/537.36 (KHTML, like Gecko) Chrome/114.0.0.0 Safari/537.36" etag="HbKWH166WPt3AnBEp9KW" version="21.6.5" type="google">
  <diagram name="Page-1" id="b5b7bab2-c9e2-2cf4-8b2a-24fd1a2a6d21">
    <mxGraphModel grid="1" page="1" gridSize="10" guides="1" tooltips="1" connect="1" arrows="1" fold="1" pageScale="1" pageWidth="4681" pageHeight="3300" background="none" math="0" shadow="0">
      <root>
        <mxCell id="0" />
        <mxCell id="1" parent="0" />
        <mxCell id="6e0c8c40b5770093-18" value="" style="group" connectable="0" vertex="1" parent="1">
          <mxGeometry x="-20" y="10" width="1280" height="1260" as="geometry" />
        </mxCell>
        <mxCell id="6e0c8c40b5770093-11" value="" style="shape=folder;fontStyle=1;spacingTop=10;tabWidth=740;tabHeight=60;tabPosition=left;html=1;rounded=0;shadow=0;comic=0;labelBackgroundColor=none;strokeWidth=1;fontFamily=Verdana;fontSize=10;align=center;" vertex="1" parent="6e0c8c40b5770093-18">
          <mxGeometry width="1280" height="1260" as="geometry" />
        </mxCell>
        <mxCell id="6e0c8c40b5770093-73" value="&lt;font style=&quot;font-size: 30px;&quot;&gt;&lt;b&gt;INTERFAZ DE USUARIO&lt;/b&gt;&lt;/font&gt;" style="text;html=1;align=left;verticalAlign=top;spacingTop=-4;fontSize=10;fontFamily=Verdana" vertex="1" parent="6e0c8c40b5770093-18">
          <mxGeometry x="30" y="10" width="130" height="20" as="geometry" />
        </mxCell>
        <mxCell id="rNrJapx8AFcjR1e13Mbm-25" value="&lt;p style=&quot;margin: 4px 0px 0px; text-align: center; font-size: 23px;&quot;&gt;&lt;b style=&quot;&quot;&gt;&lt;font style=&quot;font-size: 23px;&quot;&gt;+Usuario&lt;/font&gt;&lt;/b&gt;&lt;/p&gt;&lt;hr style=&quot;font-size: 23px;&quot;&gt;&lt;p style=&quot;text-align: center; margin: 0px 0px 0px 8px; font-size: 23px;&quot;&gt;&lt;font style=&quot;font-size: 23px;&quot;&gt;Id_Usuario&lt;/font&gt;&lt;/p&gt;&lt;p style=&quot;text-align: center; margin: 0px 0px 0px 8px; font-size: 23px;&quot;&gt;&lt;font style=&quot;font-size: 23px;&quot;&gt;Nombre_Usuario&lt;/font&gt;&lt;/p&gt;&lt;p style=&quot;text-align: center; margin: 0px 0px 0px 8px; font-size: 23px;&quot;&gt;&lt;font style=&quot;font-size: 23px;&quot;&gt;ContraseÃ±a_Usuario&lt;/font&gt;&lt;/p&gt;&lt;p style=&quot;text-align: center; margin: 0px 0px 0px 8px; font-size: 23px;&quot;&gt;&lt;font style=&quot;font-size: 23px;&quot;&gt;Direccion_Usuario&lt;/font&gt;&lt;/p&gt;&lt;p style=&quot;text-align: center; margin: 0px 0px 0px 8px; font-size: 23px;&quot;&gt;&lt;font style=&quot;font-size: 23px;&quot;&gt;Telefono_Usuario&lt;/font&gt;&lt;/p&gt;&lt;p style=&quot;text-align: center; margin: 0px 0px 0px 8px; font-size: 23px;&quot;&gt;&lt;font style=&quot;font-size: 23px;&quot;&gt;Correo_Usuario&lt;/font&gt;&lt;/p&gt;&lt;p style=&quot;text-align: center; margin: 0px 0px 0px 8px; font-size: 23px;&quot;&gt;&lt;font style=&quot;font-size: 23px;&quot;&gt;Fecha_Nac_Usuario&lt;/font&gt;&lt;/p&gt;" style="verticalAlign=top;align=left;overflow=fill;fontSize=12;fontFamily=Helvetica;html=1;whiteSpace=wrap;" vertex="1" parent="6e0c8c40b5770093-18">
          <mxGeometry x="515" y="150" width="365" height="270" as="geometry" />
        </mxCell>
        <mxCell id="rNrJapx8AFcjR1e13Mbm-32" style="edgeStyle=orthogonalEdgeStyle;rounded=0;orthogonalLoop=1;jettySize=auto;html=1;exitX=0.5;exitY=0;exitDx=0;exitDy=0;entryX=0;entryY=0.5;entryDx=0;entryDy=0;strokeWidth=2;" edge="1" parent="6e0c8c40b5770093-18" source="rNrJapx8AFcjR1e13Mbm-26" target="rNrJapx8AFcjR1e13Mbm-25">
          <mxGeometry relative="1" as="geometry" />
        </mxCell>
        <mxCell id="rNrJapx8AFcjR1e13Mbm-26" value="&lt;p style=&quot;margin: 4px 0px 0px; text-align: center; font-size: 23px;&quot;&gt;&lt;b style=&quot;&quot;&gt;&lt;font style=&quot;font-size: 23px;&quot;&gt;+Empleado&lt;/font&gt;&lt;/b&gt;&lt;/p&gt;&lt;hr style=&quot;font-size: 23px;&quot;&gt;&lt;p style=&quot;text-align: center; margin: 0px 0px 0px 8px; font-size: 23px;&quot;&gt;&lt;font style=&quot;font-size: 23px;&quot;&gt;Nombre&lt;/font&gt;&lt;/p&gt;&lt;p style=&quot;text-align: center; margin: 0px 0px 0px 8px; font-size: 23px;&quot;&gt;&lt;font style=&quot;font-size: 23px;&quot;&gt;Apellido&lt;/font&gt;&lt;/p&gt;&lt;p style=&quot;text-align: center; margin: 0px 0px 0px 8px; font-size: 23px;&quot;&gt;&lt;font style=&quot;font-size: 23px;&quot;&gt;&lt;span style=&quot;background-color: initial;&quot;&gt;Email&lt;/span&gt;&lt;br&gt;&lt;/font&gt;&lt;/p&gt;&lt;p style=&quot;text-align: center; margin: 0px 0px 0px 8px; font-size: 23px;&quot;&gt;&lt;font style=&quot;font-size: 23px;&quot;&gt;Numero_Celular&lt;/font&gt;&lt;/p&gt;&lt;p style=&quot;text-align: center; margin: 0px 0px 0px 8px; font-size: 23px;&quot;&gt;&lt;font style=&quot;font-size: 23px;&quot;&gt;Fecha_Nac_&lt;/font&gt;&lt;/p&gt;" style="verticalAlign=top;align=left;overflow=fill;fontSize=12;fontFamily=Helvetica;html=1;whiteSpace=wrap;" vertex="1" parent="6e0c8c40b5770093-18">
          <mxGeometry x="40" y="580" width="410" height="210" as="geometry" />
        </mxCell>
        <mxCell id="rNrJapx8AFcjR1e13Mbm-31" style="edgeStyle=orthogonalEdgeStyle;rounded=0;orthogonalLoop=1;jettySize=auto;html=1;exitX=0.5;exitY=0;exitDx=0;exitDy=0;entryX=1;entryY=0.5;entryDx=0;entryDy=0;strokeWidth=2;" edge="1" parent="6e0c8c40b5770093-18" source="rNrJapx8AFcjR1e13Mbm-27" target="rNrJapx8AFcjR1e13Mbm-25">
          <mxGeometry relative="1" as="geometry" />
        </mxCell>
        <mxCell id="rNrJapx8AFcjR1e13Mbm-27" value="&lt;p style=&quot;margin: 4px 0px 0px; text-align: center; font-size: 23px;&quot;&gt;&lt;b style=&quot;&quot;&gt;&lt;font style=&quot;font-size: 23px;&quot;&gt;+Cliente&lt;/font&gt;&lt;/b&gt;&lt;/p&gt;&lt;hr style=&quot;font-size: 23px;&quot;&gt;&lt;p style=&quot;border-color: var(--border-color); text-align: center; margin: 0px 0px 0px 8px; font-size: 23px;&quot;&gt;&lt;font style=&quot;font-size: 23px;&quot;&gt;Nombre&lt;/font&gt;&lt;/p&gt;&lt;p style=&quot;border-color: var(--border-color); text-align: center; margin: 0px 0px 0px 8px; font-size: 23px;&quot;&gt;&lt;font style=&quot;font-size: 23px;&quot;&gt;Apellido&lt;/font&gt;&lt;/p&gt;&lt;p style=&quot;border-color: var(--border-color); text-align: center; margin: 0px 0px 0px 8px; font-size: 23px;&quot;&gt;&lt;font style=&quot;font-size: 23px;&quot;&gt;Email&lt;br style=&quot;border-color: var(--border-color);&quot;&gt;&lt;/font&gt;&lt;/p&gt;&lt;p style=&quot;border-color: var(--border-color); text-align: center; margin: 0px 0px 0px 8px; font-size: 23px;&quot;&gt;&lt;font style=&quot;font-size: 23px;&quot;&gt;Numero_Celular&lt;/font&gt;&lt;/p&gt;&lt;p style=&quot;border-color: var(--border-color); text-align: center; margin: 0px 0px 0px 8px; font-size: 23px;&quot;&gt;&lt;font style=&quot;font-size: 23px;&quot;&gt;Fecha_Nac_&lt;/font&gt;&lt;/p&gt;" style="verticalAlign=top;align=left;overflow=fill;fontSize=12;fontFamily=Helvetica;html=1;whiteSpace=wrap;" vertex="1" parent="6e0c8c40b5770093-18">
          <mxGeometry x="900" y="580" width="340" height="200" as="geometry" />
        </mxCell>
        <mxCell id="rNrJapx8AFcjR1e13Mbm-30" style="edgeStyle=orthogonalEdgeStyle;rounded=0;orthogonalLoop=1;jettySize=auto;html=1;exitX=0.5;exitY=0;exitDx=0;exitDy=0;entryX=0.5;entryY=1;entryDx=0;entryDy=0;strokeWidth=2;" edge="1" parent="6e0c8c40b5770093-18" source="rNrJapx8AFcjR1e13Mbm-28" target="rNrJapx8AFcjR1e13Mbm-25">
          <mxGeometry relative="1" as="geometry" />
        </mxCell>
        <mxCell id="rNrJapx8AFcjR1e13Mbm-28" value="&lt;p style=&quot;margin: 4px 0px 0px; text-align: center; font-size: 23px;&quot;&gt;&lt;b style=&quot;&quot;&gt;&lt;font style=&quot;font-size: 23px;&quot;&gt;+Administrador&lt;/font&gt;&lt;/b&gt;&lt;/p&gt;&lt;hr style=&quot;font-size: 23px;&quot;&gt;&lt;p style=&quot;border-color: var(--border-color); text-align: center; margin: 0px 0px 0px 8px; font-size: 23px;&quot;&gt;&lt;font style=&quot;font-size: 23px;&quot;&gt;Nombre&lt;/font&gt;&lt;/p&gt;&lt;p style=&quot;border-color: var(--border-color); text-align: center; margin: 0px 0px 0px 8px; font-size: 23px;&quot;&gt;&lt;font style=&quot;font-size: 23px;&quot;&gt;Apellido&lt;/font&gt;&lt;/p&gt;&lt;p style=&quot;border-color: var(--border-color); text-align: center; margin: 0px 0px 0px 8px; font-size: 23px;&quot;&gt;&lt;font style=&quot;font-size: 23px;&quot;&gt;Email&lt;br style=&quot;border-color: var(--border-color);&quot;&gt;&lt;/font&gt;&lt;/p&gt;&lt;p style=&quot;border-color: var(--border-color); text-align: center; margin: 0px 0px 0px 8px; font-size: 23px;&quot;&gt;&lt;font style=&quot;font-size: 23px;&quot;&gt;Numero_Celular&lt;/font&gt;&lt;/p&gt;&lt;p style=&quot;border-color: var(--border-color); text-align: center; margin: 0px 0px 0px 8px; font-size: 23px;&quot;&gt;&lt;font style=&quot;font-size: 23px;&quot;&gt;&lt;font style=&quot;font-size: 23px;&quot;&gt;Fecha_Nac&lt;/font&gt;_&lt;/font&gt;&lt;/p&gt;" style="verticalAlign=top;align=left;overflow=fill;fontSize=12;fontFamily=Helvetica;html=1;whiteSpace=wrap;" vertex="1" parent="6e0c8c40b5770093-18">
          <mxGeometry x="537.5" y="960" width="320" height="200" as="geometry" />
        </mxCell>
        <mxCell id="rNrJapx8AFcjR1e13Mbm-7" value="" style="group" connectable="0" vertex="1" parent="1">
          <mxGeometry x="1840" y="-280" width="1280" height="970" as="geometry" />
        </mxCell>
        <mxCell id="rNrJapx8AFcjR1e13Mbm-8" value="" style="shape=folder;fontStyle=1;spacingTop=10;tabWidth=740;tabHeight=60;tabPosition=left;html=1;rounded=0;shadow=0;comic=0;labelBackgroundColor=none;strokeWidth=1;fontFamily=Verdana;fontSize=10;align=center;" vertex="1" parent="rNrJapx8AFcjR1e13Mbm-7">
          <mxGeometry y="410.19" width="1280" height="499.81" as="geometry" />
        </mxCell>
        <mxCell id="rNrJapx8AFcjR1e13Mbm-21" value="&lt;font style=&quot;font-size: 30px;&quot;&gt;&lt;b&gt;SERVICIO DEL SISTEMA&lt;/b&gt;&lt;/font&gt;" style="text;html=1;align=left;verticalAlign=top;spacingTop=-4;fontSize=10;fontFamily=Verdana" vertex="1" parent="rNrJapx8AFcjR1e13Mbm-7">
          <mxGeometry x="70" y="420" width="130" height="20" as="geometry" />
        </mxCell>
        <mxCell id="rNrJapx8AFcjR1e13Mbm-33" value="&lt;p style=&quot;margin: 4px 0px 0px; text-align: center; font-size: 23px;&quot;&gt;&lt;b style=&quot;&quot;&gt;&lt;font style=&quot;font-size: 23px;&quot;&gt;+Envio&lt;/font&gt;&lt;/b&gt;&lt;/p&gt;&lt;hr style=&quot;font-size: 23px;&quot;&gt;&lt;p style=&quot;border-color: var(--border-color); text-align: center; margin: 0px 0px 0px 8px; font-size: 23px;&quot;&gt;&lt;font style=&quot;font-size: 23px;&quot;&gt;Id_envio&lt;/font&gt;&lt;/p&gt;&lt;p style=&quot;border-color: var(--border-color); text-align: center; margin: 0px 0px 0px 8px; font-size: 23px;&quot;&gt;&lt;font style=&quot;font-size: 23px;&quot;&gt;Direccion_envio&lt;/font&gt;&lt;/p&gt;&lt;p style=&quot;border-color: var(--border-color); text-align: center; margin: 0px 0px 0px 8px; font-size: 23px;&quot;&gt;&lt;font style=&quot;font-size: 23px;&quot;&gt;Descp_envio&lt;/font&gt;&lt;/p&gt;&lt;p style=&quot;border-color: var(--border-color); text-align: center; margin: 0px 0px 0px 8px; font-size: 23px;&quot;&gt;&lt;font style=&quot;font-size: 23px;&quot;&gt;Nombre_Cliente_Envio&lt;/font&gt;&lt;/p&gt;&lt;p style=&quot;border-color: var(--border-color); text-align: center; margin: 0px 0px 0px 8px; font-size: 23px;&quot;&gt;&lt;font style=&quot;font-size: 23px;&quot;&gt;Fecha_llegada_envio&lt;/font&gt;&lt;/p&gt;" style="verticalAlign=top;align=left;overflow=fill;fontSize=12;fontFamily=Helvetica;html=1;whiteSpace=wrap;" vertex="1" parent="rNrJapx8AFcjR1e13Mbm-7">
          <mxGeometry x="50" y="570" width="340" height="210" as="geometry" />
        </mxCell>
        <mxCell id="rNrJapx8AFcjR1e13Mbm-34" value="&lt;p style=&quot;margin: 4px 0px 0px; text-align: center; font-size: 23px;&quot;&gt;&lt;b style=&quot;&quot;&gt;&lt;font style=&quot;font-size: 23px;&quot;&gt;+Pedido&lt;/font&gt;&lt;/b&gt;&lt;/p&gt;&lt;hr style=&quot;font-size: 23px;&quot;&gt;&lt;p style=&quot;border-color: var(--border-color); text-align: center; margin: 0px 0px 0px 8px; font-size: 23px;&quot;&gt;&lt;font style=&quot;font-size: 23px;&quot;&gt;Id_pedido&lt;/font&gt;&lt;/p&gt;&lt;p style=&quot;border-color: var(--border-color); text-align: center; margin: 0px 0px 0px 8px; font-size: 23px;&quot;&gt;&lt;font style=&quot;font-size: 23px;&quot;&gt;Fecha_pedido&lt;/font&gt;&lt;/p&gt;&lt;p style=&quot;border-color: var(--border-color); text-align: center; margin: 0px 0px 0px 8px; font-size: 23px;&quot;&gt;&lt;font style=&quot;font-size: 23px;&quot;&gt;Nombre_productos_pedido&lt;/font&gt;&lt;/p&gt;&lt;p style=&quot;border-color: var(--border-color); text-align: center; margin: 0px 0px 0px 8px; font-size: 23px;&quot;&gt;&lt;font style=&quot;font-size: 23px;&quot;&gt;Precio_productos_pedido&lt;/font&gt;&lt;/p&gt;&lt;p style=&quot;border-color: var(--border-color); text-align: center; margin: 0px 0px 0px 8px; font-size: 23px;&quot;&gt;&lt;font style=&quot;font-size: 23px;&quot;&gt;Nombre_productos_pedido&lt;/font&gt;&lt;/p&gt;" style="verticalAlign=top;align=left;overflow=fill;fontSize=12;fontFamily=Helvetica;html=1;whiteSpace=wrap;" vertex="1" parent="rNrJapx8AFcjR1e13Mbm-7">
          <mxGeometry x="450" y="565.1" width="340" height="214.9" as="geometry" />
        </mxCell>
        <mxCell id="rNrJapx8AFcjR1e13Mbm-35" value="&lt;p style=&quot;margin: 4px 0px 0px; text-align: center; font-size: 23px;&quot;&gt;&lt;b style=&quot;&quot;&gt;&lt;font style=&quot;font-size: 23px;&quot;&gt;+Producto&lt;/font&gt;&lt;/b&gt;&lt;/p&gt;&lt;hr style=&quot;font-size: 23px;&quot;&gt;&lt;p style=&quot;border-color: var(--border-color); text-align: center; margin: 0px 0px 0px 8px; font-size: 23px;&quot;&gt;&lt;font style=&quot;font-size: 23px;&quot;&gt;Id_productos&lt;/font&gt;&lt;/p&gt;&lt;p style=&quot;border-color: var(--border-color); text-align: center; margin: 0px 0px 0px 8px; font-size: 23px;&quot;&gt;&lt;font style=&quot;font-size: 23px;&quot;&gt;Nombre_productos&lt;/font&gt;&lt;/p&gt;&lt;p style=&quot;border-color: var(--border-color); text-align: center; margin: 0px 0px 0px 8px; font-size: 23px;&quot;&gt;&lt;font style=&quot;font-size: 23px;&quot;&gt;Descp_productos&lt;/font&gt;&lt;/p&gt;&lt;p style=&quot;border-color: var(--border-color); text-align: center; margin: 0px 0px 0px 8px; font-size: 23px;&quot;&gt;&lt;font style=&quot;font-size: 23px;&quot;&gt;Precio_productos&lt;/font&gt;&lt;/p&gt;" style="verticalAlign=top;align=left;overflow=fill;fontSize=12;fontFamily=Helvetica;html=1;whiteSpace=wrap;" vertex="1" parent="rNrJapx8AFcjR1e13Mbm-7">
          <mxGeometry x="860" y="565.1" width="340" height="214.9" as="geometry" />
        </mxCell>
        <mxCell id="rNrJapx8AFcjR1e13Mbm-9" value="" style="group" connectable="0" vertex="1" parent="1">
          <mxGeometry x="1850" y="720" width="1280" height="620" as="geometry" />
        </mxCell>
        <mxCell id="rNrJapx8AFcjR1e13Mbm-10" value="" style="shape=folder;fontStyle=1;spacingTop=10;tabWidth=740;tabHeight=60;tabPosition=left;html=1;rounded=0;shadow=0;comic=0;labelBackgroundColor=none;strokeWidth=1;fontFamily=Verdana;fontSize=10;align=center;" vertex="1" parent="rNrJapx8AFcjR1e13Mbm-9">
          <mxGeometry y="163.61111111111111" width="1280" height="456.3888888888889" as="geometry" />
        </mxCell>
        <mxCell id="rNrJapx8AFcjR1e13Mbm-22" value="&lt;font style=&quot;font-size: 30px;&quot;&gt;&lt;b&gt;SERVICIO DE NEGOCIO&lt;/b&gt;&lt;/font&gt;" style="text;html=1;align=left;verticalAlign=top;spacingTop=-4;fontSize=10;fontFamily=Verdana" vertex="1" parent="rNrJapx8AFcjR1e13Mbm-9">
          <mxGeometry x="60" y="180" width="130" height="20" as="geometry" />
        </mxCell>
        <mxCell id="rNrJapx8AFcjR1e13Mbm-48" value="&lt;p style=&quot;margin: 4px 0px 0px; text-align: center; font-size: 23px;&quot;&gt;&lt;b style=&quot;&quot;&gt;&lt;font style=&quot;font-size: 23px;&quot;&gt;+Venta&lt;/font&gt;&lt;/b&gt;&lt;/p&gt;&lt;hr style=&quot;font-size: 23px;&quot;&gt;&lt;p style=&quot;border-color: var(--border-color); text-align: center; margin: 0px 0px 0px 8px; font-size: 23px;&quot;&gt;&lt;font style=&quot;font-size: 23px;&quot;&gt;Id_venta&lt;/font&gt;&lt;/p&gt;&lt;p style=&quot;border-color: var(--border-color); text-align: center; margin: 0px 0px 0px 8px; font-size: 23px;&quot;&gt;&lt;font style=&quot;font-size: 23px;&quot;&gt;Nombre_producto_venta&lt;/font&gt;&lt;/p&gt;&lt;p style=&quot;border-color: var(--border-color); text-align: center; margin: 0px 0px 0px 8px; font-size: 23px;&quot;&gt;&lt;font style=&quot;font-size: 23px;&quot;&gt;Fecha_venta&lt;/font&gt;&lt;/p&gt;&lt;p style=&quot;border-color: var(--border-color); text-align: center; margin: 0px 0px 0px 8px; font-size: 23px;&quot;&gt;&lt;font style=&quot;font-size: 23px;&quot;&gt;Hora_venta&lt;/font&gt;&lt;/p&gt;" style="verticalAlign=top;align=left;overflow=fill;fontSize=12;fontFamily=Helvetica;html=1;whiteSpace=wrap;" vertex="1" parent="rNrJapx8AFcjR1e13Mbm-9">
          <mxGeometry x="220" y="320" width="340" height="190" as="geometry" />
        </mxCell>
        <mxCell id="rNrJapx8AFcjR1e13Mbm-51" value="&lt;p style=&quot;margin: 4px 0px 0px; text-align: center; font-size: 23px;&quot;&gt;&lt;b style=&quot;&quot;&gt;&lt;font style=&quot;font-size: 23px;&quot;&gt;+Compra&lt;/font&gt;&lt;/b&gt;&lt;/p&gt;&lt;hr style=&quot;font-size: 23px;&quot;&gt;&lt;p style=&quot;border-color: var(--border-color); text-align: center; margin: 0px 0px 0px 8px; font-size: 23px;&quot;&gt;&lt;font style=&quot;font-size: 23px;&quot;&gt;Id_compra&lt;/font&gt;&lt;/p&gt;&lt;p style=&quot;border-color: var(--border-color); text-align: center; margin: 0px 0px 0px 8px; font-size: 23px;&quot;&gt;&lt;font style=&quot;font-size: 23px;&quot;&gt;Fecha_compra&lt;/font&gt;&lt;/p&gt;&lt;p style=&quot;border-color: var(--border-color); text-align: center; margin: 0px 0px 0px 8px; font-size: 23px;&quot;&gt;&lt;font style=&quot;font-size: 23px;&quot;&gt;Productos_compra&lt;/font&gt;&lt;/p&gt;&lt;p style=&quot;border-color: var(--border-color); text-align: center; margin: 0px 0px 0px 8px; font-size: 23px;&quot;&gt;&lt;font style=&quot;font-size: 23px;&quot;&gt;Cant_productos_compra&lt;/font&gt;&lt;/p&gt;&lt;p style=&quot;border-color: var(--border-color); text-align: center; margin: 0px 0px 0px 8px; font-size: 23px;&quot;&gt;&lt;font style=&quot;font-size: 23px;&quot;&gt;Total_pago_compra&lt;/font&gt;&lt;/p&gt;" style="verticalAlign=top;align=left;overflow=fill;fontSize=12;fontFamily=Helvetica;html=1;whiteSpace=wrap;" vertex="1" parent="rNrJapx8AFcjR1e13Mbm-9">
          <mxGeometry x="690" y="320" width="340" height="200" as="geometry" />
        </mxCell>
        <mxCell id="rNrJapx8AFcjR1e13Mbm-11" value="" style="group" connectable="0" vertex="1" parent="1">
          <mxGeometry x="3420" y="160" width="1090" height="660" as="geometry" />
        </mxCell>
        <mxCell id="rNrJapx8AFcjR1e13Mbm-12" value="" style="shape=folder;fontStyle=1;spacingTop=10;tabWidth=740;tabHeight=60;tabPosition=left;html=1;rounded=0;shadow=0;comic=0;labelBackgroundColor=none;strokeWidth=1;fontFamily=Verdana;fontSize=10;align=center;" vertex="1" parent="rNrJapx8AFcjR1e13Mbm-11">
          <mxGeometry x="272.5" y="174.16666666666666" width="817.5" height="284.16666666666663" as="geometry" />
        </mxCell>
        <mxCell id="rNrJapx8AFcjR1e13Mbm-23" value="&lt;span style=&quot;font-size: 30px;&quot;&gt;&lt;b&gt;ACCESO A DATOS&lt;/b&gt;&lt;/span&gt;" style="text;html=1;align=left;verticalAlign=top;spacingTop=-4;fontSize=10;fontFamily=Verdana" vertex="1" parent="rNrJapx8AFcjR1e13Mbm-11">
          <mxGeometry x="310" y="190" width="130" height="20" as="geometry" />
        </mxCell>
        <mxCell id="rNrJapx8AFcjR1e13Mbm-29" value="&lt;b&gt;&lt;font style=&quot;font-size: 36px;&quot;&gt;JDBC&lt;/font&gt;&lt;/b&gt;" style="rounded=0;whiteSpace=wrap;html=1;" vertex="1" parent="rNrJapx8AFcjR1e13Mbm-11">
          <mxGeometry x="550" y="260" width="290" height="140" as="geometry" />
        </mxCell>
        <mxCell id="rNrJapx8AFcjR1e13Mbm-14" style="edgeStyle=orthogonalEdgeStyle;rounded=0;orthogonalLoop=1;jettySize=auto;html=1;exitX=0.5;exitY=0;exitDx=0;exitDy=0;exitPerimeter=0;dashed=1;dashPattern=12 12;strokeWidth=3;" edge="1" parent="1" source="rNrJapx8AFcjR1e13Mbm-13" target="rNrJapx8AFcjR1e13Mbm-12">
          <mxGeometry relative="1" as="geometry" />
        </mxCell>
        <mxCell id="rNrJapx8AFcjR1e13Mbm-13" value="&lt;font style=&quot;font-size: 29px;&quot;&gt;&lt;b&gt;BASE DE DATOS&lt;/b&gt;&lt;/font&gt;" style="shape=cylinder3;whiteSpace=wrap;html=1;boundedLbl=1;backgroundOutline=1;size=15;" vertex="1" parent="1">
          <mxGeometry x="3971.25" y="1030" width="260" height="350" as="geometry" />
        </mxCell>
        <mxCell id="rNrJapx8AFcjR1e13Mbm-17" style="edgeStyle=orthogonalEdgeStyle;rounded=0;orthogonalLoop=1;jettySize=auto;html=1;dashed=1;dashPattern=12 12;strokeWidth=3;" edge="1" parent="1" target="rNrJapx8AFcjR1e13Mbm-8">
          <mxGeometry relative="1" as="geometry">
            <mxPoint x="2480" y="890" as="sourcePoint" />
          </mxGeometry>
        </mxCell>
        <mxCell id="rNrJapx8AFcjR1e13Mbm-19" style="edgeStyle=orthogonalEdgeStyle;rounded=0;orthogonalLoop=1;jettySize=auto;html=1;exitX=0;exitY=0;exitDx=1280;exitDy=660;exitPerimeter=0;entryX=0;entryY=0;entryDx=0;entryDy=279.905;entryPerimeter=0;dashed=1;dashPattern=12 12;strokeWidth=3;" edge="1" parent="1" source="6e0c8c40b5770093-11" target="rNrJapx8AFcjR1e13Mbm-8">
          <mxGeometry relative="1" as="geometry" />
        </mxCell>
        <mxCell id="rNrJapx8AFcjR1e13Mbm-20" style="edgeStyle=orthogonalEdgeStyle;rounded=0;orthogonalLoop=1;jettySize=auto;html=1;exitX=0;exitY=0;exitDx=1280;exitDy=258.19444444444446;exitPerimeter=0;entryX=0;entryY=0;entryDx=0;entryDy=172.08333333333331;entryPerimeter=0;dashed=1;dashPattern=12 12;strokeWidth=3;" edge="1" parent="1" source="rNrJapx8AFcjR1e13Mbm-10" target="rNrJapx8AFcjR1e13Mbm-12">
          <mxGeometry relative="1" as="geometry">
            <Array as="points">
              <mxPoint x="3460" y="1142" />
              <mxPoint x="3460" y="506" />
            </Array>
          </mxGeometry>
        </mxCell>
        <mxCell id="rNrJapx8AFcjR1e13Mbm-53" value="" style="endArrow=none;html=1;rounded=0;strokeWidth=3;" edge="1" parent="1">
          <mxGeometry width="50" height="50" relative="1" as="geometry">
            <mxPoint x="1400" y="1410" as="sourcePoint" />
            <mxPoint x="1400" y="-130" as="targetPoint" />
          </mxGeometry>
        </mxCell>
        <mxCell id="rNrJapx8AFcjR1e13Mbm-56" value="" style="endArrow=none;html=1;rounded=0;strokeWidth=3;" edge="1" parent="1">
          <mxGeometry width="50" height="50" relative="1" as="geometry">
            <mxPoint x="3400" y="1410" as="sourcePoint" />
            <mxPoint x="3400" y="-130" as="targetPoint" />
          </mxGeometry>
        </mxCell>
      </root>
    </mxGraphModel>
  </diagram>
</mxfile>
